<svg width="186" height="48" viewBox="0 0 186 48" fill="none" xmlns="http://www.w3.org/2000/svg">
<path d="M62.3623 12.3368V16.1942C62.3623 17.0275 62.4535 17.5451 62.6357 17.7469C62.8831 18.0334 63.2575 18.1766 63.7588 18.1766H64.2666V18.538H58.5928V18.1766H59.0908C59.6507 18.1766 60.0511 17.9943 60.292 17.6298C60.4222 17.4279 60.4873 16.9494 60.4873 16.1942V7.63953C60.4873 6.80619 60.3994 6.28861 60.2236 6.08679C59.9697 5.80033 59.5921 5.6571 59.0908 5.6571H58.5928V5.29578H63.4463C64.6312 5.29578 65.5654 5.41947 66.249 5.66687C66.9326 5.90776 67.5088 6.31791 67.9775 6.89734C68.4463 7.47677 68.6807 8.16361 68.6807 8.95789C68.6807 10.0386 68.3226 10.9175 67.6064 11.5946C66.8968 12.2717 65.891 12.6102 64.5889 12.6102C64.2699 12.6102 63.9248 12.5874 63.5537 12.5419C63.1826 12.4963 62.7855 12.4279 62.3623 12.3368ZM62.3623 11.7802C62.7074 11.8453 63.0133 11.8941 63.2803 11.9266C63.5472 11.9592 63.7751 11.9755 63.9639 11.9755C64.641 11.9755 65.2236 11.715 65.7119 11.1942C66.2067 10.6669 66.4541 9.98653 66.4541 9.1532C66.4541 8.58028 66.3369 8.04968 66.1025 7.5614C65.8682 7.06661 65.5361 6.69877 65.1064 6.45789C64.6768 6.21049 64.1885 6.08679 63.6416 6.08679C63.3096 6.08679 62.8831 6.14864 62.3623 6.27234V11.7802ZM88.008 4.99304C89.7268 4.99304 91.2144 5.64734 92.4709 6.95593C93.7339 8.25802 94.3654 9.88562 94.3654 11.8387C94.3654 13.8505 93.7307 15.5204 92.4611 16.8485C91.1916 18.1766 89.6551 18.8407 87.8518 18.8407C86.0288 18.8407 84.4956 18.1929 83.2521 16.8973C82.0152 15.6018 81.3967 13.9253 81.3967 11.868C81.3967 9.76518 82.1128 8.04968 83.5451 6.72156C84.7886 5.56921 86.2762 4.99304 88.008 4.99304ZM87.8225 5.70593C86.6376 5.70593 85.687 6.14539 84.9709 7.02429C84.079 8.11804 83.633 9.7196 83.633 11.829C83.633 13.9904 84.0952 15.6538 85.0197 16.8192C85.7294 17.7046 86.6669 18.1473 87.8322 18.1473C89.0757 18.1473 90.1011 17.6623 90.9084 16.6923C91.7222 15.7222 92.1291 14.1923 92.1291 12.1024C92.1291 9.83679 91.6831 8.14734 90.7912 7.03406C90.0751 6.14864 89.0855 5.70593 87.8225 5.70593ZM112.619 18.1766V18.538H106.945V18.1766H107.413C107.96 18.1766 108.357 18.0171 108.605 17.6981C108.761 17.4898 108.839 16.9885 108.839 16.1942V7.63953C108.839 6.96895 108.797 6.52625 108.712 6.3114C108.647 6.14864 108.514 6.00867 108.312 5.89148C108.025 5.73523 107.726 5.6571 107.413 5.6571H106.945V5.29578H112.619V5.6571H112.14C111.6 5.6571 111.206 5.81661 110.958 6.13562C110.796 6.34395 110.714 6.84526 110.714 7.63953V16.1942C110.714 16.8648 110.757 17.3075 110.841 17.5223C110.906 17.6851 111.043 17.8251 111.251 17.9423C111.531 18.0985 111.828 18.1766 112.14 18.1766H112.619ZM124.143 5.29578H127.737L135.833 15.2274V7.5907C135.833 6.7769 135.741 6.26908 135.559 6.06726C135.318 5.79382 134.937 5.6571 134.417 5.6571H133.958V5.29578H138.567V5.6571H138.098C137.538 5.6571 137.141 5.82638 136.907 6.16492C136.764 6.37325 136.692 6.84851 136.692 7.5907V18.7528H136.34L127.61 8.08875V16.243C127.61 17.0568 127.698 17.5647 127.874 17.7665C128.121 18.0399 128.502 18.1766 129.016 18.1766H129.485V18.538H124.876V18.1766H125.335C125.901 18.1766 126.301 18.0074 126.536 17.6688C126.679 17.4605 126.751 16.9852 126.751 16.243V7.03406C126.366 6.58484 126.074 6.28861 125.872 6.14539C125.676 6.00216 125.387 5.86869 125.003 5.745C124.814 5.6864 124.527 5.6571 124.143 5.6571V5.29578ZM161.732 5.29578L161.879 8.40125H161.508C161.436 7.85437 161.338 7.46375 161.215 7.22937C161.013 6.85177 160.743 6.57507 160.404 6.39929C160.072 6.217 159.633 6.12585 159.086 6.12585H157.221V16.243C157.221 17.0568 157.308 17.5647 157.484 17.7665C157.732 18.0399 158.112 18.1766 158.627 18.1766H159.086V18.538H153.471V18.1766H153.939C154.499 18.1766 154.896 18.0074 155.131 17.6688C155.274 17.4605 155.346 16.9852 155.346 16.243V6.12585H153.754C153.135 6.12585 152.696 6.17143 152.435 6.26257C152.097 6.38627 151.807 6.6239 151.566 6.97546C151.325 7.32703 151.182 7.80229 151.137 8.40125H150.765L150.922 5.29578H161.732ZM182.856 4.99304V9.57312H182.495C182.378 8.69421 182.166 7.99434 181.86 7.47351C181.561 6.95268 181.131 6.53927 180.571 6.23328C180.011 5.92729 179.432 5.77429 178.833 5.77429C178.156 5.77429 177.596 5.98263 177.153 6.39929C176.711 6.80945 176.489 7.2782 176.489 7.80554C176.489 8.20919 176.629 8.57703 176.909 8.90906C177.313 9.39734 178.273 10.0484 179.79 10.8622C181.027 11.5262 181.87 12.0373 182.319 12.3954C182.775 12.7469 183.123 13.1636 183.364 13.6454C183.612 14.1272 183.735 14.6317 183.735 15.1591C183.735 16.1617 183.345 17.0275 182.563 17.7567C181.789 18.4794 180.789 18.8407 179.565 18.8407C179.181 18.8407 178.82 18.8114 178.481 18.7528C178.28 18.7203 177.86 18.6031 177.222 18.4012C176.59 18.1929 176.19 18.0887 176.021 18.0887C175.858 18.0887 175.728 18.1376 175.63 18.2352C175.539 18.3329 175.47 18.5347 175.425 18.8407H175.063V14.2997H175.425C175.594 15.2502 175.822 15.9631 176.108 16.4384C176.395 16.9071 176.831 17.2977 177.417 17.6102C178.009 17.9227 178.657 18.079 179.36 18.079C180.174 18.079 180.815 17.8641 181.284 17.4344C181.759 17.0048 181.997 16.4969 181.997 15.911C181.997 15.5855 181.906 15.2567 181.724 14.9247C181.548 14.5927 181.271 14.2834 180.894 13.9969C180.64 13.8016 179.946 13.3882 178.813 12.7567C177.681 12.1187 176.873 11.6109 176.392 11.2333C175.916 10.8557 175.555 10.439 175.308 9.98328C175.06 9.52755 174.937 9.02625 174.937 8.47937C174.937 7.52885 175.301 6.71179 176.03 6.0282C176.759 5.33809 177.687 4.99304 178.813 4.99304C179.517 4.99304 180.262 5.16557 181.05 5.51062C181.414 5.67338 181.672 5.75476 181.821 5.75476C181.991 5.75476 182.127 5.70593 182.231 5.60828C182.342 5.50411 182.43 5.29903 182.495 4.99304H182.856ZM65.5752 27.993C67.2939 27.993 68.7816 28.6473 70.0381 29.9559C71.3011 31.258 71.9326 32.8856 71.9326 34.8387C71.9326 36.8505 71.2979 38.5204 70.0283 39.8485C68.7588 41.1766 67.2223 41.8407 65.4189 41.8407C63.596 41.8407 62.0628 41.1929 60.8193 39.8973C59.5824 38.6018 58.9639 36.9253 58.9639 34.868C58.9639 32.7652 59.68 31.0497 61.1123 29.7216C62.3558 28.5692 63.8434 27.993 65.5752 27.993ZM65.3896 28.7059C64.2048 28.7059 63.2542 29.1454 62.5381 30.0243C61.6462 31.118 61.2002 32.7196 61.2002 34.829C61.2002 36.9904 61.6624 38.6538 62.5869 39.8192C63.2965 40.7046 64.234 41.1473 65.3994 41.1473C66.6429 41.1473 67.6683 40.6623 68.4756 39.6923C69.2894 38.7222 69.6963 37.1923 69.6963 35.1024C69.6963 32.8368 69.2503 31.1473 68.3584 30.0341C67.6423 29.1486 66.6527 28.7059 65.3896 28.7059ZM83.7502 28.2958H87.3439L95.4396 38.2274V30.5907C95.4396 29.7769 95.3485 29.2691 95.1662 29.0673C94.9253 28.7938 94.5445 28.6571 94.0236 28.6571H93.5646V28.2958H98.174V28.6571H97.7053C97.1454 28.6571 96.7482 28.8264 96.5139 29.1649C96.3706 29.3733 96.299 29.8485 96.299 30.5907V41.7528H95.9475L87.217 31.0887V39.243C87.217 40.0568 87.3049 40.5647 87.4807 40.7665C87.7281 41.0399 88.1089 41.1766 88.6232 41.1766H89.092V41.538H84.4826V41.1766H84.9416C85.508 41.1766 85.9084 41.0074 86.1428 40.6688C86.286 40.4605 86.3576 39.9852 86.3576 39.243V30.0341C85.9735 29.5848 85.6805 29.2886 85.4787 29.1454C85.2834 29.0022 84.9937 28.8687 84.6096 28.745C84.4208 28.6864 84.1343 28.6571 83.7502 28.6571V28.2958ZM113.947 29.0184V34.2528H116.857C117.612 34.2528 118.117 34.1389 118.371 33.911C118.709 33.6115 118.898 33.0842 118.937 32.329H119.298V36.9384H118.937C118.846 36.2938 118.755 35.8804 118.663 35.6981C118.546 35.4703 118.354 35.2912 118.087 35.161C117.82 35.0308 117.41 34.9657 116.857 34.9657H113.947V39.3309C113.947 39.9169 113.973 40.2749 114.025 40.4052C114.077 40.5288 114.168 40.6298 114.298 40.7079C114.428 40.7795 114.676 40.8153 115.04 40.8153H117.287C118.035 40.8153 118.579 40.7632 118.917 40.6591C119.256 40.5549 119.581 40.3498 119.894 40.0438C120.298 39.6402 120.711 39.0315 121.134 38.2177H121.525L120.382 41.538H110.177V41.1766H110.646C110.958 41.1766 111.255 41.1018 111.535 40.952C111.743 40.8479 111.883 40.6916 111.954 40.4833C112.033 40.2749 112.072 39.8485 112.072 39.204V30.6005C112.072 29.7606 111.987 29.243 111.818 29.0477C111.583 28.7873 111.193 28.6571 110.646 28.6571H110.177V28.2958H120.382L120.529 31.1962H120.148C120.011 30.4996 119.858 30.021 119.689 29.7606C119.526 29.5002 119.282 29.3016 118.956 29.1649C118.696 29.0673 118.237 29.0184 117.579 29.0184H113.947Z" fill="#091242"/>
<path d="M5.70119 13.3018L23.6843 0.611952L41.6675 13.3018L43.6656 35.2205L23.6843 44.4495L3.70306 35.2205L5.70119 13.3018Z" stroke="#091242"/>
<path d="M9.06473 15.2437L23.6843 4.92738L38.3039 15.2437L39.9283 33.0628L23.6843 40.5655L7.44033 33.0628L9.06473 15.2437Z" stroke="#091242"/>
<path d="M12.3789 17.1569L23.6847 9.17897L34.9905 17.1569L36.2467 30.937L23.6847 36.7391L11.1227 30.937L12.3789 17.1569Z" stroke="#091242"/>
<path d="M16.0545 19.2789L23.6847 13.8947L31.3148 19.2789L32.1626 28.5789L23.6847 32.4947L15.2067 28.5789L16.0545 19.2789Z" stroke="#091242"/>
<rect x="126.865" y="28.4324" width="57.5341" height="2.17102" fill="#091242"/>
<rect x="126.865" y="33.4983" width="57.5341" height="2.17102" fill="#091242"/>
<rect x="126.865" y="38.6848" width="57.5341" height="2.17102" fill="#091242"/>
</svg>
