<svg width="87" height="39" viewBox="0 0 87 39" fill="none" xmlns="http://www.w3.org/2000/svg">
<path d="M13.058 0.435998H16.964V39H12.314L4.316 9.116V39H0.41V0.435998H5.37L13.058 29.266V0.435998ZM24.6491 0.435998H30.9731C34.2384 0.435998 35.8711 2.06866 35.8711 5.334V34.102C35.8711 37.3673 34.2384 39 30.9731 39H24.6491C21.3838 39 19.7511 37.3673 19.7511 34.102V5.334C19.7511 2.06866 21.3838 0.435998 24.6491 0.435998ZM31.6551 33.42V6.016C31.6551 5.18933 31.5311 4.67266 31.2831 4.466C31.0351 4.218 30.5184 4.094 29.7331 4.094H25.8891C25.1038 4.094 24.5871 4.218 24.3391 4.466C24.0911 4.67266 23.9671 5.18933 23.9671 6.016V33.42C23.9671 34.2467 24.0911 34.784 24.3391 35.032C24.5871 35.2387 25.1038 35.342 25.8891 35.342H29.7331C30.5184 35.342 31.0351 35.2387 31.2831 35.032C31.5311 34.784 31.6551 34.2467 31.6551 33.42ZM42.8989 22.88V39H38.6829V0.435998H49.9049C53.1702 0.435998 54.8029 2.06866 54.8029 5.334V17.982C54.8029 20.9167 53.5216 22.5287 50.9589 22.818L56.7869 39H52.1989L46.5569 22.88H42.8989ZM42.8989 4.094V19.222H48.6649C49.4916 19.222 50.0082 19.1187 50.2149 18.912C50.4629 18.664 50.5869 18.1267 50.5869 17.3V6.016C50.5869 5.18933 50.4629 4.67266 50.2149 4.466C50.0082 4.218 49.4916 4.094 48.6649 4.094H42.8989ZM71.0629 0.435998V4.094H64.8629V39H60.6469V4.094H54.4469V0.435998H71.0629ZM75.6707 0.435998H81.9947C85.2601 0.435998 86.8927 2.06866 86.8927 5.334V34.102C86.8927 37.3673 85.2601 39 81.9947 39H75.6707C72.4054 39 70.7727 37.3673 70.7727 34.102V5.334C70.7727 2.06866 72.4054 0.435998 75.6707 0.435998ZM82.6767 33.42V6.016C82.6767 5.18933 82.5527 4.67266 82.3047 4.466C82.0567 4.218 81.5401 4.094 80.7547 4.094H76.9107C76.1254 4.094 75.6087 4.218 75.3607 4.466C75.1127 4.67266 74.9887 5.18933 74.9887 6.016V33.42C74.9887 34.2467 75.1127 34.784 75.3607 35.032C75.6087 35.2387 76.1254 35.342 76.9107 35.342H80.7547C81.5401 35.342 82.0567 35.2387 82.3047 35.032C82.5527 34.784 82.6767 34.2467 82.6767 33.42Z" fill="#091242"/>
</svg>
