<svg width="174" height="52" viewBox="0 0 174 52" fill="none" xmlns="http://www.w3.org/2000/svg">
<path d="M0.839844 14.5117C0.839844 12.8581 1.30208 11.4714 2.22656 10.3516C3.15104 9.23177 4.36198 8.67188 5.85938 8.67188C7.36979 8.67188 8.58073 9.23828 9.49219 10.3711C10.4167 11.4909 10.8789 12.8711 10.8789 14.5117C10.8789 16.1393 10.4167 17.5195 9.49219 18.6523C8.58073 19.7721 7.36979 20.332 5.85938 20.332C4.36198 20.332 3.15104 19.7721 2.22656 18.6523C1.30208 17.5326 0.839844 16.1523 0.839844 14.5117ZM1.89453 14.4922C1.89453 15.7682 2.24609 16.901 2.94922 17.8906C3.66536 18.8672 4.63542 19.3555 5.85938 19.3555C7.08333 19.3555 8.04688 18.8737 8.75 17.9102C9.46615 16.9336 9.82422 15.7943 9.82422 14.4922C9.82422 13.1771 9.46615 12.0443 8.75 11.0938C8.03385 10.1302 7.07031 9.64844 5.85938 9.64844C4.60938 9.64844 3.63281 10.1432 2.92969 11.1328C2.23958 12.1094 1.89453 13.2292 1.89453 14.4922ZM23.4875 9.00391H27.8625V9.92188H25.8703V15.4297C25.8703 16.6146 25.994 17.4609 26.2414 17.9688C26.6841 18.8932 27.5565 19.3555 28.8586 19.3555C30.2128 19.3555 31.0982 18.9453 31.5148 18.125C31.7753 17.6562 31.9055 16.8229 31.9055 15.625V9.92188H29.9133V9.00391H34.2883V9.92188H32.882V15.625C32.882 17.1615 32.6477 18.2552 32.1789 18.9062C31.9185 19.2708 31.5018 19.6029 30.9289 19.9023C30.356 20.1888 29.6724 20.332 28.8781 20.332C27.3807 20.332 26.274 19.8242 25.5578 18.8086C25.1151 18.1706 24.8937 17.0443 24.8937 15.4297V9.92188H23.4875V9.00391ZM47.2094 9.00391H56.5844L56.9164 13.6133L55.9789 13.7305L55.7055 9.92188H52.3852V19.082H54.7484V20H49.0453V19.082H51.4086V9.92188H48.0883L47.8148 13.7305L46.8773 13.6133L47.2094 9.00391ZM69.8961 14.5117C69.8961 12.8581 70.3583 11.4714 71.2828 10.3516C72.2073 9.23177 73.4182 8.67188 74.9156 8.67188C76.426 8.67188 77.637 9.23828 78.5484 10.3711C79.4729 11.4909 79.9352 12.8711 79.9352 14.5117C79.9352 16.1393 79.4729 17.5195 78.5484 18.6523C77.637 19.7721 76.426 20.332 74.9156 20.332C73.4182 20.332 72.2073 19.7721 71.2828 18.6523C70.3583 17.5326 69.8961 16.1523 69.8961 14.5117ZM70.9508 14.4922C70.9508 15.7682 71.3023 16.901 72.0055 17.8906C72.7216 18.8672 73.6917 19.3555 74.9156 19.3555C76.1396 19.3555 77.1031 18.8737 77.8063 17.9102C78.5224 16.9336 78.8805 15.7943 78.8805 14.4922C78.8805 13.1771 78.5224 12.0443 77.8063 11.0938C77.0901 10.1302 76.1266 9.64844 74.9156 9.64844C73.6656 9.64844 72.6891 10.1432 71.9859 11.1328C71.2958 12.1094 70.9508 13.2292 70.9508 14.4922ZM93.4812 9.00391H102.641L102.739 12.5195H101.86L101.626 9.92188H96.0398V13.7305H99.2039V12.3047H100.102V16.0547H99.2039V14.6484H96.0398V19.082H98.5789V20H93.4812V19.082H95.0633V9.92188H93.4812V9.00391ZM116.266 9.00391H125.641L125.973 13.6133L125.035 13.7305L124.762 9.92188H121.441V19.082H123.805V20H118.102V19.082H120.465V9.92188H117.145L116.871 13.7305L115.934 13.6133L116.266 9.00391ZM138.874 9.00391H142.78V9.92188H141.316V13.8672H146.628V9.92188H145.163V9.00391H149.089V9.92188H147.605V19.082H149.089V20H145.163V19.082H146.628V14.7852H141.316V19.082H142.78V20H138.874V19.082H140.339V9.92188H138.874V9.00391ZM162.245 9.00391H171.522L171.6 12.5977H170.702L170.506 9.92188H164.881V13.7305H168.045V12.3047H168.944V16.0547H168.045V14.6484H164.881V19.082H170.702L170.799 16.4062H171.698V20H162.245V19.082H163.905V9.92188H162.245V9.00391ZM9.02344 34.7891H9.90234C9.78516 35.2969 9.72656 35.7656 9.72656 36.1953C9.72656 36.7943 9.78516 37.569 9.90234 38.5195L9.02344 38.6758C8.91927 37.9076 8.71745 37.2956 8.41797 36.8398C7.89714 36.0456 7.07031 35.6484 5.9375 35.6484C5 35.6484 4.27083 35.8893 3.75 36.3711C3.24219 36.8529 2.98828 37.3802 2.98828 37.9531C2.98828 38.3698 3.08594 38.7214 3.28125 39.0078C3.48958 39.2943 3.77604 39.5091 4.14062 39.6523C4.51823 39.7826 4.82422 39.8737 5.05859 39.9258C5.29297 39.9648 5.59245 40.0039 5.95703 40.043C6.77734 40.1341 7.3763 40.2253 7.75391 40.3164C8.14453 40.3945 8.49609 40.5378 8.80859 40.7461C9.61589 41.293 10.0195 42.0482 10.0195 43.0117C10.0195 44.0664 9.61589 44.8867 8.80859 45.4727C8.0013 46.0456 7.07031 46.332 6.01562 46.332C4.94792 46.332 4.05599 46.0326 3.33984 45.4336C3.28776 45.3815 3.23568 45.3555 3.18359 45.3555C3.11849 45.3555 3.05339 45.4076 2.98828 45.5117C2.9362 45.668 2.8776 45.9609 2.8125 46.3906H1.93359C2.05078 45.8307 2.10938 45.2513 2.10938 44.6523C2.10938 44.3659 2.05078 43.6758 1.93359 42.582H2.8125C2.96875 43.3633 3.1901 43.9427 3.47656 44.3203C3.9974 45.0104 4.79818 45.3555 5.87891 45.3555C6.95964 45.3555 7.74089 45.1276 8.22266 44.6719C8.71745 44.2161 8.96484 43.6888 8.96484 43.0898C8.96484 42.7643 8.89974 42.4844 8.76953 42.25C8.63932 42.0026 8.48307 41.8138 8.30078 41.6836C8.13151 41.5404 7.90365 41.4232 7.61719 41.332C7.34375 41.2409 7.11589 41.1823 6.93359 41.1562C6.7513 41.1302 6.52344 41.1042 6.25 41.0781C5.80729 41.0391 5.44922 41 5.17578 40.9609C4.91536 40.9219 4.55078 40.8307 4.08203 40.6875C3.6263 40.5443 3.26172 40.375 2.98828 40.1797C2.71484 39.9844 2.46745 39.7044 2.24609 39.3398C2.03776 38.9622 1.93359 38.526 1.93359 38.0312C1.93359 37.1198 2.30469 36.332 3.04688 35.668C3.80208 35.0039 4.72656 34.6719 5.82031 34.6719C6.75781 34.6719 7.5651 34.9388 8.24219 35.4727C8.48958 35.6549 8.63932 35.7461 8.69141 35.7461C8.76953 35.7461 8.82161 35.7135 8.84766 35.6484C8.8737 35.5833 8.91927 35.3815 8.98438 35.043C9.01042 34.9388 9.02344 34.8542 9.02344 34.7891ZM25.2258 35.0039H29.425L33.5461 45.082H34.5422V46H30.5383V45.082H32.5305L31.4172 42.3672H26.3195L25.2258 45.082H27.218V46H23.2141V45.082H24.2492L28.0187 35.9219H25.2258V35.0039ZM31.0852 41.5078L28.8781 36.1562L26.6711 41.5078H31.0852ZM46.5844 35.0039H49.9242L55.0609 45.1797H55.4125V35.9219H53.225V35.0039H57.5805V35.9219H56.3109V46.2539H54.5727L49.3383 35.9219H49.0062V45.082H51.2133V46H46.5844V45.082H48.1078V35.9219H46.5844V35.0039ZM69.7203 35.0039H74.6031C75.5797 35.0039 76.3674 35.0951 76.9664 35.2773C77.5654 35.4596 78.1122 35.8568 78.607 36.4688C79.4143 37.4714 79.818 38.7474 79.818 40.2969C79.818 42.3151 79.2776 43.8385 78.1969 44.8672C77.4026 45.6224 76.1786 46 74.525 46H69.7203V45.082H71.2633V35.9219H69.7203V35.0039ZM74.6227 35.9219H72.2398V45.082H74.525C75.8531 45.082 76.8297 44.776 77.4547 44.1641C78.3271 43.2917 78.7633 42.0221 78.7633 40.3555C78.7633 39.0924 78.4573 38.0378 77.8453 37.1914C77.4677 36.6576 77.0445 36.3125 76.5758 36.1562C76.107 36 75.456 35.9219 74.6227 35.9219ZM116.695 35.0039H122.027C123.29 35.0039 124.228 35.2773 124.84 35.8242C125.452 36.3711 125.758 37.0417 125.758 37.8359C125.758 38.9167 125.243 39.724 124.215 40.2578C125.699 40.7005 126.441 41.612 126.441 42.9922C126.441 43.526 126.311 44.0143 126.051 44.457C125.803 44.8997 125.471 45.2318 125.055 45.4531C124.638 45.6745 124.221 45.8242 123.805 45.9023C123.388 45.9674 122.737 46 121.852 46H116.695V45.082H118.316V35.9219H116.695V35.0039ZM121.988 35.9219H119.293V39.8281H121.891C122.49 39.8281 122.997 39.7565 123.414 39.6133C123.831 39.457 124.124 39.2617 124.293 39.0273C124.462 38.793 124.579 38.5781 124.645 38.3828C124.71 38.1875 124.742 37.9922 124.742 37.7969C124.742 37.3672 124.625 37.0091 124.391 36.7227C124.169 36.4362 123.87 36.2474 123.492 36.1562C123.115 36.0521 122.822 35.987 122.613 35.9609C122.418 35.9349 122.21 35.9219 121.988 35.9219ZM121.734 40.7461H119.293V45.082H121.812C122.138 45.082 122.392 45.082 122.574 45.082C122.757 45.069 123.01 45.043 123.336 45.0039C123.674 44.9648 123.941 44.9062 124.137 44.8281C124.345 44.737 124.56 44.6198 124.781 44.4766C125.003 44.3203 125.165 44.1185 125.27 43.8711C125.374 43.6237 125.426 43.3307 125.426 42.9922C125.426 42.224 125.094 41.6576 124.43 41.293C123.766 40.9284 122.867 40.7461 121.734 40.7461ZM139.675 40.5117C139.675 38.8581 140.137 37.4714 141.062 36.3516C141.986 35.2318 143.197 34.6719 144.695 34.6719C146.205 34.6719 147.416 35.2383 148.327 36.3711C149.252 37.4909 149.714 38.8711 149.714 40.5117C149.714 42.1393 149.252 43.5195 148.327 44.6523C147.416 45.7721 146.205 46.332 144.695 46.332C143.197 46.332 141.986 45.7721 141.062 44.6523C140.137 43.5326 139.675 42.1523 139.675 40.5117ZM140.73 40.4922C140.73 41.7682 141.081 42.901 141.784 43.8906C142.501 44.8672 143.471 45.3555 144.695 45.3555C145.918 45.3555 146.882 44.8737 147.585 43.9102C148.301 42.9336 148.659 41.7943 148.659 40.4922C148.659 39.1771 148.301 38.0443 147.585 37.0938C146.869 36.1302 145.905 35.6484 144.695 35.6484C143.445 35.6484 142.468 36.1432 141.765 37.1328C141.075 38.1094 140.73 39.2292 140.73 40.4922ZM162.87 35.0039H166.659V35.9219H165.057L167.733 39.4961L170.467 35.9219H168.983V35.0039H172.557V35.9219H171.561L168.28 40.2188L171.913 45.082H172.928V46H168.983V45.082H170.741L167.733 40.9414L164.588 45.082H166.659V46H162.498V45.082H163.495L167.186 40.2188L163.905 35.9219H162.87V35.0039Z" fill="#091242"/>
<rect x="93.2256" y="35.2129" width="11.0043" height="9.03674" stroke="#091242"/>
<rect x="94.7471" y="36.7554" width="7.97269" height="5.96338" fill="#091242"/>
</svg>
