<svg width="206" height="52" viewBox="0 0 206 52" fill="none" xmlns="http://www.w3.org/2000/svg">
<path d="M61.1029 14.7418H63.8029C63.8562 15.1951 64.0629 15.6085 64.4229 15.9818C64.7962 16.3418 65.2829 16.6285 65.8829 16.8418C66.4829 17.0418 67.1562 17.1418 67.9029 17.1418C68.5829 17.1418 69.1429 17.0685 69.5829 16.9218C70.0229 16.7751 70.3495 16.5685 70.5629 16.3018C70.7762 16.0351 70.8829 15.7151 70.8829 15.3418C70.8829 14.9818 70.7495 14.7085 70.4829 14.5218C70.2162 14.3218 69.7962 14.1618 69.2229 14.0418C68.6495 13.9085 67.8962 13.7751 66.9629 13.6418C66.2295 13.5351 65.5362 13.3885 64.8829 13.2018C64.2295 13.0018 63.6495 12.7485 63.1429 12.4418C62.6495 12.1351 62.2562 11.7618 61.9629 11.3218C61.6829 10.8685 61.5429 10.3351 61.5429 9.72181C61.5429 8.96181 61.7562 8.29514 62.1829 7.72181C62.6229 7.14847 63.2695 6.70181 64.1229 6.38181C64.9762 6.06181 66.0229 5.90181 67.2629 5.90181C69.1295 5.90181 70.5629 6.30181 71.5629 7.10181C72.5762 7.88847 73.0695 8.97514 73.0429 10.3618H70.4429C70.3895 9.57514 70.0562 9.00847 69.4429 8.66181C68.8429 8.31514 68.0829 8.14181 67.1629 8.14181C66.3095 8.14181 65.6029 8.26847 65.0429 8.52181C64.4962 8.77514 64.2229 9.20847 64.2229 9.82181C64.2229 10.0618 64.2895 10.2751 64.4229 10.4618C64.5562 10.6351 64.7829 10.7885 65.1029 10.9218C65.4229 11.0551 65.8562 11.1818 66.4029 11.3018C66.9495 11.4218 67.6295 11.5418 68.4429 11.6618C69.2029 11.7685 69.8895 11.9151 70.5029 12.1018C71.1295 12.2751 71.6629 12.5085 72.1029 12.8018C72.5562 13.0818 72.9029 13.4418 73.1429 13.8818C73.3829 14.3218 73.5029 14.8618 73.5029 15.5018C73.5029 16.2885 73.2962 16.9751 72.8829 17.5618C72.4829 18.1351 71.8562 18.5818 71.0029 18.9018C70.1629 19.2218 69.0695 19.3818 67.7229 19.3818C66.7629 19.3818 65.9162 19.2818 65.1829 19.0818C64.4495 18.8685 63.8162 18.5885 63.2829 18.2418C62.7495 17.8951 62.3162 17.5151 61.9829 17.1018C61.6495 16.6885 61.4095 16.2751 61.2629 15.8618C61.1295 15.4485 61.0762 15.0751 61.1029 14.7418ZM86.0096 6.16181H99.6496V8.38181H86.0096V6.16181ZM91.5096 8.10181H94.1696V19.1018H91.5096V8.10181ZM124.763 13.3818V6.16181H127.423V13.6618C127.423 14.5151 127.296 15.2618 127.043 15.9018C126.803 16.5418 126.456 17.0818 126.003 17.5218C125.55 17.9618 125.016 18.3218 124.403 18.6018C123.803 18.8685 123.143 19.0618 122.423 19.1818C121.716 19.3018 120.97 19.3618 120.183 19.3618C119.37 19.3618 118.596 19.3018 117.863 19.1818C117.13 19.0618 116.456 18.8685 115.843 18.6018C115.243 18.3218 114.723 17.9618 114.283 17.5218C113.843 17.0818 113.496 16.5418 113.243 15.9018C113.003 15.2618 112.883 14.5151 112.883 13.6618V6.16181H115.543V13.3818C115.543 14.3951 115.743 15.1685 116.143 15.7018C116.543 16.2218 117.09 16.5818 117.783 16.7818C118.49 16.9685 119.29 17.0618 120.183 17.0618C121.05 17.0618 121.823 16.9685 122.503 16.7818C123.196 16.5818 123.743 16.2218 124.143 15.7018C124.556 15.1685 124.763 14.3951 124.763 13.3818ZM149.2 6.16181C150.654 6.16181 151.867 6.33514 152.84 6.68181C153.814 7.02847 154.587 7.50181 155.16 8.10181C155.747 8.68847 156.16 9.36847 156.4 10.1418C156.654 10.9151 156.78 11.7285 156.78 12.5818C156.78 13.4351 156.64 14.2551 156.36 15.0418C156.094 15.8285 155.66 16.5285 155.06 17.1418C154.474 17.7418 153.694 18.2218 152.72 18.5818C151.76 18.9285 150.587 19.1018 149.2 19.1018H141.8V6.16181H149.2ZM144.46 16.8218H149.14C150.1 16.8218 150.894 16.7085 151.52 16.4818C152.16 16.2418 152.667 15.9218 153.04 15.5218C153.414 15.1218 153.68 14.6685 153.84 14.1618C154 13.6551 154.08 13.1285 154.08 12.5818C154.08 12.0351 154 11.5151 153.84 11.0218C153.68 10.5285 153.414 10.0885 153.04 9.70181C152.667 9.31514 152.16 9.00847 151.52 8.78181C150.894 8.55514 150.1 8.44181 149.14 8.44181H144.46V16.8218ZM171.058 6.16181H173.718V19.1018H171.058V6.16181ZM196.163 19.3618C194.443 19.3618 192.97 19.0951 191.743 18.5618C190.53 18.0151 189.596 17.2418 188.943 16.2418C188.303 15.2418 187.983 14.0418 187.983 12.6418C187.983 11.2285 188.303 10.0218 188.943 9.02181C189.596 8.02181 190.53 7.25514 191.743 6.72181C192.97 6.17514 194.443 5.90181 196.163 5.90181C197.896 5.90181 199.37 6.17514 200.583 6.72181C201.796 7.25514 202.723 8.02181 203.363 9.02181C204.016 10.0218 204.343 11.2285 204.343 12.6418C204.343 14.0418 204.016 15.2418 203.363 16.2418C202.723 17.2418 201.796 18.0151 200.583 18.5618C199.37 19.0951 197.896 19.3618 196.163 19.3618ZM196.163 17.0618C197.23 17.0618 198.163 16.9018 198.963 16.5818C199.776 16.2618 200.41 15.7751 200.863 15.1218C201.33 14.4685 201.563 13.6418 201.563 12.6418C201.563 11.6418 201.33 10.8151 200.863 10.1618C200.41 9.50847 199.776 9.02181 198.963 8.70181C198.163 8.36847 197.23 8.20181 196.163 8.20181C195.11 8.20181 194.17 8.36847 193.343 8.70181C192.516 9.02181 191.87 9.50847 191.403 10.1618C190.936 10.8151 190.703 11.6418 190.703 12.6418C190.703 13.6418 190.936 14.4685 191.403 15.1218C191.87 15.7751 192.516 16.2618 193.343 16.5818C194.17 16.9018 195.11 17.0618 196.163 17.0618ZM69.4029 43.3618C68.2029 43.3618 67.1162 43.2218 66.1429 42.9418C65.1829 42.6618 64.3495 42.2418 63.6429 41.6818C62.9495 41.1218 62.4162 40.4285 62.0429 39.6018C61.6695 38.7751 61.4829 37.8218 61.4829 36.7418C61.4829 35.6485 61.6762 34.6818 62.0629 33.8418C62.4629 32.9885 63.0229 32.2685 63.7429 31.6818C64.4762 31.0951 65.3429 30.6551 66.3429 30.3618C67.3562 30.0551 68.4762 29.9018 69.7029 29.9018C71.1562 29.9018 72.4095 30.1085 73.4629 30.5218C74.5162 30.9218 75.3429 31.4885 75.9429 32.2218C76.5562 32.9551 76.9029 33.8285 76.9829 34.8418H74.4229C74.2495 34.3085 73.9629 33.8485 73.5629 33.4618C73.1762 33.0618 72.6629 32.7551 72.0229 32.5418C71.3829 32.3151 70.6095 32.2018 69.7029 32.2018C68.5429 32.2018 67.5495 32.3885 66.7229 32.7618C65.9095 33.1351 65.2895 33.6618 64.8629 34.3418C64.4362 35.0218 64.2229 35.8218 64.2229 36.7418C64.2229 37.6351 64.4095 38.4085 64.7829 39.0618C65.1562 39.7018 65.7295 40.1951 66.5029 40.5418C67.2895 40.8885 68.2895 41.0618 69.5029 41.0618C70.4362 41.0618 71.2562 40.9418 71.9629 40.7018C72.6829 40.4485 73.2829 40.1151 73.7629 39.7018C74.2429 39.2751 74.5829 38.8018 74.7829 38.2818L75.8229 37.9018C75.6495 39.6218 74.9962 40.9618 73.8629 41.9218C72.7429 42.8818 71.2562 43.3618 69.4029 43.3618ZM75.1429 43.1018C75.1429 42.6885 75.1695 42.2151 75.2229 41.6818C75.2762 41.1351 75.3429 40.5885 75.4229 40.0418C75.5029 39.4818 75.5762 38.9685 75.6429 38.5018H69.7229V36.8018H77.4429V43.1018H75.1429ZM95.3441 43.1018V30.1618H104.124C105.124 30.1618 105.991 30.3018 106.724 30.5818C107.471 30.8485 108.051 31.2751 108.464 31.8618C108.877 32.4351 109.084 33.1751 109.084 34.0818C109.084 34.6951 108.977 35.2151 108.764 35.6418C108.551 36.0685 108.251 36.4151 107.864 36.6818C107.491 36.9485 107.057 37.1551 106.564 37.3018C106.071 37.4351 105.544 37.5218 104.984 37.5618L104.704 37.4018C105.637 37.4151 106.404 37.4951 107.004 37.6418C107.604 37.7751 108.051 38.0285 108.344 38.4018C108.651 38.7618 108.804 39.3018 108.804 40.0218V43.1018H106.144V40.2018C106.144 39.7085 106.057 39.3285 105.884 39.0618C105.711 38.7818 105.397 38.5885 104.944 38.4818C104.504 38.3751 103.864 38.3218 103.024 38.3218H98.0041V43.1018H95.3441ZM98.0041 36.2418H104.124C104.871 36.2418 105.437 36.0618 105.824 35.7018C106.224 35.3418 106.424 34.8551 106.424 34.2418C106.424 33.6551 106.224 33.2085 105.824 32.9018C105.437 32.5951 104.871 32.4418 104.124 32.4418H98.0041V36.2418ZM129.628 37.7018V40.8818H139.608V43.1018H126.968V30.1618H139.588V32.3818H129.628V35.6018H137.788V37.7018H129.628ZM160.099 37.7018V40.8818H170.079V43.1018H157.439V30.1618H170.059V32.3818H160.099V35.6018H168.259V37.7018H160.099ZM201.03 40.4618L200.19 40.8018V30.1618H202.85V43.1018H200.19L189.73 32.8818L190.57 32.5418V43.1018H187.91V30.1618H190.57L201.03 40.4618Z" fill="#091242"/>
<path d="M25.8043 0L27.283 17.4183L34.6299 1.55619L30.062 18.4297L42.391 6.03706L32.3275 20.3307L48.1515 12.9022L33.8062 22.8919L51.2166 21.3234L34.3197 25.8043L51.2166 30.2852L33.8062 28.7168L48.1515 38.7065L32.3275 31.2779L42.391 45.5716L30.062 33.1789L34.6299 50.0525L27.283 34.1904L25.8043 51.6086L24.3256 34.1904L16.9787 50.0525L21.5466 33.1789L9.21762 45.5716L19.2811 31.2779L3.45712 38.7065L17.8024 28.7168L0.392025 30.2852L17.2889 25.8043L0.392025 21.3234L17.8024 22.8919L3.45712 12.9022L19.2811 20.3307L9.21762 6.03706L21.5466 18.4297L16.9787 1.55619L24.3256 17.4183L25.8043 0Z" fill="#091242"/>
</svg>
